<svg xmlns="http://www.w3.org/2000/svg" viewBox="0 0 189.28 48.95">
	<defs>
		<style>
			.cls-1 {
				fill: #231f20;
			}
		</style>
	</defs>
	<path
		d="M373.36,309a.59.59,0,0,1-.59-.59v-.82a.59.59,0,0,1,1.17,0v.82A.59.59,0,0,1,373.36,309Zm-3.3,0a.59.59,0,0,1-.59-.59v-.82a.59.59,0,0,1,1.17,0v.82A.59.59,0,0,1,370.06,309Zm-36.27,0a.59.59,0,0,1-.59-.59v-.82a.59.59,0,0,1,1.17,0v.82A.59.59,0,0,1,333.79,309Zm-3.3,0a.59.59,0,0,1-.59-.59v-.82a.59.59,0,0,1,1.17,0v.82A.59.59,0,0,1,330.49,309Zm42.87-3.27a.59.59,0,0,1-.59-.59v-.82a.59.59,0,0,1,1.17,0v.82A.59.59,0,0,1,373.36,305.77Zm-3.3,0a.59.59,0,0,1-.59-.59v-.82a.59.59,0,0,1,1.17,0v.82A.59.59,0,0,1,370.06,305.77Zm-36.27,0a.59.59,0,0,1-.59-.59v-.82a.59.59,0,0,1,1.17,0v.82A.59.59,0,0,1,333.79,305.77Zm-3.3,0a.59.59,0,0,1-.59-.59v-.82a.59.59,0,0,1,1.17,0v.82A.59.59,0,0,1,330.49,305.77Zm37.69-.82h-32.5v-4.44h14v-1a.59.59,0,1,1,1.17,0v1h2.95v-1a.59.59,0,1,1,1.17,0v1h13.19Zm-6.6-1.17H367v-2.09h-5.42Zm-6.59,0h5.42v-2.09H355Zm-4.12,0h2.95v-2.09h-2.95Zm-6.6,0h5.42v-2.09h-5.42Zm-7.42,0h6.25v-2.09h-6.25Zm36.52-3.72a.59.59,0,0,1-.59-.59V297a.59.59,0,1,1,1.17,0v2.45A.59.59,0,0,1,373.36,300.06Zm-3.3,0a.59.59,0,0,1-.59-.59V297a.59.59,0,0,1,1.17,0v2.45A.59.59,0,0,1,370.06,300.06Zm-36.27,0a.59.59,0,0,1-.59-.59V297a.59.59,0,1,1,1.17,0v2.45A.59.59,0,0,1,333.79,300.06Zm-3.3,0a.59.59,0,0,1-.59-.59V297a.59.59,0,0,1,1.17,0v2.45A.59.59,0,0,1,330.49,300.06Z"
		transform="translate(-327.19 -274.18)"
	/>
	<path
		d="M351.92,322.92a24.54,24.54,0,0,1-17.32-7.1,24.17,24.17,0,0,1-5.25-7.71,24.13,24.13,0,0,1,0-18.89,24.17,24.17,0,0,1,5.25-7.71,24.63,24.63,0,0,1,34.64,0,24.17,24.17,0,0,1,5.25,7.71,24.13,24.13,0,0,1,0,18.89,24.17,24.17,0,0,1-5.25,7.71,24.54,24.54,0,0,1-17.32,7.1Zm0-47.36a23.36,23.36,0,0,0-16.49,6.77,23,23,0,0,0-5,7.34,23,23,0,0,0,0,18,23,23,0,0,0,5,7.34,23.45,23.45,0,0,0,33,0,23,23,0,0,0,5-7.34,23,23,0,0,0,0-18,23,23,0,0,0-5-7.34,23.36,23.36,0,0,0-16.49-6.77Z"
		transform="translate(-327.19 -274.18)"
	/>
	<path
		d="M367,317.81V289.9h1l2.57-7,.65.82a24.11,24.11,0,0,1,3.55,6.18h0l.14.38h0l.3.79h0A24.09,24.09,0,0,1,376,294h0l0,.13.07.36.12.69h0a24.29,24.29,0,0,1,.26,3.49,23.84,23.84,0,0,1-2.29,10.24A24.22,24.22,0,0,1,368,317Zm1.17-22.65v20a23,23,0,0,0,4.9-6.81,22.67,22.67,0,0,0,2.17-9.74,23.11,23.11,0,0,0-.27-3.49Zm0-4.08V294h6.59a22.9,22.9,0,0,0-.8-2.91Zm1.08-1.17h4.26a22.93,22.93,0,0,0-2.57-4.6Zm-33,1.17h-7.65l.3-.79a24.11,24.11,0,0,1,3.7-6.56l.65-.82Zm-5.94-1.17h4.26l-1.69-4.6A22.93,22.93,0,0,0,330.34,289.9Z"
		transform="translate(-327.19 -274.18)"
	/>
	<path
		d="M342.34,321.08l-.31-.23a24.58,24.58,0,0,1-3.09-1.63l-.79-.49,12.71-8.09v3.81Zm-2-2.37c.61.35,1.24.66,1.87,1l7.44-5.79v-1.09Zm21.2,2.24-7.77-6.51V310.6l11.87,8.14-.76.47a24.54,24.54,0,0,1-3,1.59Zm-6.6-7.06,6.79,5.69c.59-.27,1.18-.57,1.75-.9L355,312.83Zm-18.14,3.23H336l-.17-.14a24.22,24.22,0,0,1-6.16-8.09,23.84,23.84,0,0,1-2.29-10.24,24.24,24.24,0,0,1,.26-3.5h0l.09-.54,0-.15h0l0-.15.06-.33h0a23.94,23.94,0,0,1,1-3.7l.14-.38h7.78Zm-.59-.59h0Zm-7.39-21.37a23.05,23.05,0,0,0-.27,3.5,22.67,22.67,0,0,0,2.17,9.74,23.36,23.36,0,0,0,4.9,6.81v-20Zm.21-1.17h6.59v-2.91h-5.79A22.78,22.78,0,0,0,329.08,294Zm43.63,17.5H367V301.33h9.28l-.09.67a23.82,23.82,0,0,1-3.29,9.21Zm-4.54-1.17h3.88a22.63,22.63,0,0,0,2.86-7.81h-6.74Z"
		transform="translate(-327.19 -274.18)"
	/>
	<path
		d="M336.84,311.49h-5.72l-.17-.28a23.84,23.84,0,0,1-3.29-9.21l-.09-.67h9.28Zm-5.06-1.17h3.88V302.5h-6.74A22.64,22.64,0,0,0,331.79,310.31Z"
		transform="translate(-327.19 -274.18)"
	/>
	<path
		d="M351.84,274.18a24.48,24.48,0,1,1-24.65,24.48,24.56,24.56,0,0,1,24.65-24.48m0,.49h0a24,24,0,1,0,24.16,24A24.07,24.07,0,0,0,351.84,274.66Z"
		transform="translate(-327.19 -274.18)"
	/>
	<path
		d="M350.11,288.43a2,2,0,0,1-.42.74,2.05,2.05,0,0,1-.77.52,3.19,3.19,0,0,1-1.2.2,2.52,2.52,0,0,1-1.83-.63,2.45,2.45,0,0,1-.64-1.84v-.52h1.13v.36a3.59,3.59,0,0,0,.06.68,1.46,1.46,0,0,0,.21.54,1,1,0,0,0,.42.35,1.62,1.62,0,0,0,.68.13,1.21,1.21,0,0,0,1.07-.42,1.92,1.92,0,0,0,.29-1.12V281.2h1.13v6.38A2.93,2.93,0,0,1,350.11,288.43Z"
		transform="translate(-327.19 -274.18)"
	/>
	<path
		d="M356.35,282.37a2.4,2.4,0,0,0-1.45-.41,3.46,3.46,0,0,0-.7.07,1.87,1.87,0,0,0-.61.24,1.25,1.25,0,0,0-.43.45,1.38,1.38,0,0,0-.16.7.89.89,0,0,0,.23.64,1.72,1.72,0,0,0,.62.4,5.17,5.17,0,0,0,.88.26l1,.22q.51.12,1,.28a3.28,3.28,0,0,1,.88.43,2.07,2.07,0,0,1,.62.69,2.42,2.42,0,0,1-.07,2.21,2.5,2.5,0,0,1-.78.79,3.39,3.39,0,0,1-1.07.44,5.18,5.18,0,0,1-1.17.14,5,5,0,0,1-1.35-.18,3.33,3.33,0,0,1-1.12-.54,2.57,2.57,0,0,1-.76-.93,3,3,0,0,1-.28-1.34h1.07a1.92,1.92,0,0,0,.21.92,1.89,1.89,0,0,0,.55.64,2.31,2.31,0,0,0,.79.37,3.63,3.63,0,0,0,.93.12,4.23,4.23,0,0,0,.77-.07,2.26,2.26,0,0,0,.7-.24,1.31,1.31,0,0,0,.69-1.23,1.07,1.07,0,0,0-.23-.71,1.71,1.71,0,0,0-.62-.45,4.55,4.55,0,0,0-.88-.28l-1-.22q-.51-.11-1-.26a3.59,3.59,0,0,1-.88-.39,1.88,1.88,0,0,1-.62-.63,1.86,1.86,0,0,1-.23-1,2.25,2.25,0,0,1,.26-1.11,2.29,2.29,0,0,1,.7-.77,3.13,3.13,0,0,1,1-.45,4.36,4.36,0,0,1,1.14-.15,4.55,4.55,0,0,1,1.21.15,2.75,2.75,0,0,1,1,.49,2.36,2.36,0,0,1,.67.84,3,3,0,0,1,.27,1.21H357A1.77,1.77,0,0,0,356.35,282.37Z"
		transform="translate(-327.19 -274.18)"
	/>
	<path
		d="M405.61,288.07a9.27,9.27,0,0,0-5.44-1.6,9.74,9.74,0,0,0-4.6,1,9.07,9.07,0,0,0-3.15,2.71,11.69,11.69,0,0,0-1.83,3.88,17.37,17.37,0,0,0-.59,4.54,19.43,19.43,0,0,0,.59,4.85,11.6,11.6,0,0,0,1.83,4,9,9,0,0,0,3.17,2.71,9.87,9.87,0,0,0,4.62,1,8.9,8.9,0,0,0,3.51-.65,7.93,7.93,0,0,0,2.65-1.81,8.31,8.31,0,0,0,1.74-2.75,11.44,11.44,0,0,0,.76-3.44h4a13.63,13.63,0,0,1-3.91,8.82q-3.32,3.15-9.07,3.15a14.46,14.46,0,0,1-6.09-1.2,12,12,0,0,1-4.33-3.3,14.15,14.15,0,0,1-2.58-5,21.14,21.14,0,0,1-.86-6.13,20,20,0,0,1,.92-6.15,14.82,14.82,0,0,1,2.71-5,12.63,12.63,0,0,1,4.45-3.38,14.35,14.35,0,0,1,6.11-1.24,15.4,15.4,0,0,1,4.45.63,12,12,0,0,1,3.74,1.85,10.4,10.4,0,0,1,2.73,3,11.17,11.17,0,0,1,1.43,4.22h-4A7.42,7.42,0,0,0,405.61,288.07Z"
		transform="translate(-327.19 -274.18)"
	/>
	<path
		d="M417.44,288.2v-4.37H421v4.37ZM421,292.1v21.71h-3.57V292.1Z"
		transform="translate(-327.19 -274.18)"
	/>
	<path
		d="M435.83,292.1v3.15h-4.33v13.48a3.88,3.88,0,0,0,.1,1,1,1,0,0,0,.4.59,1.76,1.76,0,0,0,.82.27,11.91,11.91,0,0,0,1.37.06h1.64v3.15H433.1a12.81,12.81,0,0,1-2.37-.19,3.48,3.48,0,0,1-1.6-.69,3,3,0,0,1-.9-1.43,8.24,8.24,0,0,1-.29-2.44V295.25h-3.7V292.1h3.7v-6.51h3.57v6.51Z"
		transform="translate(-327.19 -274.18)"
	/>
	<path
		d="M448.3,316.72a22.86,22.86,0,0,1-1.24,2.69,7.36,7.36,0,0,1-1.34,1.79,4.57,4.57,0,0,1-1.64,1,6.31,6.31,0,0,1-2.08.31,9.51,9.51,0,0,1-1.26-.08,6,6,0,0,1-1.22-.29v-3.28a6.05,6.05,0,0,0,1.07.36,4.53,4.53,0,0,0,1,.15,3.07,3.07,0,0,0,1.83-.52,3.22,3.22,0,0,0,1.11-1.49l1.47-3.65-8.61-21.59h4l6.34,17.77h.08L454,292.1h3.78Z"
		transform="translate(-327.19 -274.18)"
	/>
	<path
		d="M476.17,309.32a6.86,6.86,0,0,1-1.47,2.63A7.23,7.23,0,0,1,472,313.8a11.23,11.23,0,0,1-4.22.69,8.9,8.9,0,0,1-6.47-2.21q-2.27-2.2-2.27-6.49v-1.85h4v1.26a12.65,12.65,0,0,0,.21,2.39,5.17,5.17,0,0,0,.73,1.89,3.47,3.47,0,0,0,1.47,1.24,5.73,5.73,0,0,0,2.42.44q2.73,0,3.76-1.47a6.76,6.76,0,0,0,1-3.95V283.83h4v22.51A10.32,10.32,0,0,1,476.17,309.32Z"
		transform="translate(-327.19 -274.18)"
	/>
	<path
		d="M498.18,287.92a8.47,8.47,0,0,0-5.1-1.45,12.2,12.2,0,0,0-2.48.25,6.58,6.58,0,0,0-2.16.84,4.42,4.42,0,0,0-1.51,1.58,4.87,4.87,0,0,0-.57,2.46,3.12,3.12,0,0,0,.82,2.25,6.06,6.06,0,0,0,2.18,1.41,18.24,18.24,0,0,0,3.09.9q1.72.36,3.51.78t3.51,1a11.57,11.57,0,0,1,3.09,1.53,7.31,7.31,0,0,1,2.18,2.44,8.54,8.54,0,0,1-.25,7.79,8.81,8.81,0,0,1-2.75,2.77A12,12,0,0,1,498,314a18.25,18.25,0,0,1-4.14.48,17.59,17.59,0,0,1-4.77-.63,11.76,11.76,0,0,1-3.95-1.91,9.05,9.05,0,0,1-2.69-3.28,10.54,10.54,0,0,1-1-4.73h3.78a6.77,6.77,0,0,0,.73,3.25,6.68,6.68,0,0,0,1.93,2.25,8.14,8.14,0,0,0,2.79,1.3,12.8,12.8,0,0,0,3.28.42,14.9,14.9,0,0,0,2.71-.25,8,8,0,0,0,2.46-.86,4.61,4.61,0,0,0,2.44-4.35,3.77,3.77,0,0,0-.82-2.52,6,6,0,0,0-2.18-1.58,16,16,0,0,0-3.09-1l-3.51-.78q-1.79-.4-3.51-.92a12.66,12.66,0,0,1-3.09-1.39,6.63,6.63,0,0,1-2.18-2.23,6.56,6.56,0,0,1-.82-3.42,7.94,7.94,0,0,1,.92-3.93,8.07,8.07,0,0,1,2.46-2.73,11,11,0,0,1,3.49-1.6,15.38,15.38,0,0,1,4-.53,16,16,0,0,1,4.28.55,9.71,9.71,0,0,1,3.46,1.72,8.32,8.32,0,0,1,2.35,3,10.58,10.58,0,0,1,.94,4.26h-3.78A6.25,6.25,0,0,0,498.18,287.92Z"
		transform="translate(-327.19 -274.18)"
	/>
	<path
		class="cls-1"
		d="M505.57,281.17v-.64h4.57v.64h-1.9v5.07h-.76v-5.07Z"
		transform="translate(-327.19 -274.18)"
	/>
	<path
		class="cls-1"
		d="M511.82,280.53l1.8,4.8,1.81-4.8h1v5.71h-.72v-4.75h0L514,286.24h-.65l-1.78-4.75h0v4.75h-.72v-5.71Z"
		transform="translate(-327.19 -274.18)"
	/>
</svg>
